<svg width="512" height="512" viewBox="0 0 512 512" fill="none" xmlns="http://www.w3.org/2000/svg">
<g clip-path="url(#clip0)">
<path d="M407.275 416H215.403C187.733 416 163.2 397.845 155.712 371.84L90.8587 152.085C88.5547 144.128 80.896 138.667 72.1493 138.667H21.3333C9.536 138.667 0 129.109 0 117.333C0 105.557 9.536 96 21.3333 96H72.1493C99.8187 96 124.331 114.155 131.819 140.16L143.957 181.333H470.251C483.563 181.333 496.192 187.669 504.021 198.293C511.787 208.832 514.027 222.016 510.165 234.475L466.155 374.165C457.536 399.381 433.92 416 407.275 416Z" fill="#857C82"/>
<path d="M234.667 512C211.136 512 192 492.864 192 469.333C192 445.803 211.136 426.667 234.667 426.667C258.197 426.667 277.333 445.803 277.333 469.333C277.333 492.864 258.197 512 234.667 512Z" fill="#857C82"/>
<path d="M384 512C360.469 512 341.333 492.864 341.333 469.333C341.333 445.803 360.469 426.667 384 426.667C407.531 426.667 426.667 445.803 426.667 469.333C426.667 492.864 407.531 512 384 512Z" fill="#857C82"/>
</g>
<defs>
<clipPath id="clip0">
<rect width="512" height="512" fill="white"/>
</clipPath>
</defs>
</svg>
