<?xml version="1.0" encoding="UTF-8"?>
<svg xmlns="http://www.w3.org/2000/svg" xmlns:xlink="http://www.w3.org/1999/xlink" width="440pt" height="375pt" viewBox="0 0 440 375" version="1.1">
<g id="surface1">
<path style=" stroke:none;fill-rule:nonzero;fill:rgb(56.862745%,78.431373%,29.411765%);fill-opacity:1;" d="M 116.667969 281.4375 C 99.523438 292.394531 79.71875 296.535156 67.195312 298.101562 C 63.460938 298.566406 62.671875 302.90625 66.0625 304.3125 C 108.136719 321.75 153.269531 319.660156 180.628906 315.808594 C 194.046875 313.921875 206.222656 322.6875 206.222656 334.277344 L 206.222656 281.4375 Z M 116.667969 281.4375 "/>
<path style=" stroke:none;fill-rule:nonzero;fill:rgb(62.745098%,84.313725%,33.333333%);fill-opacity:1;" d="M 323.332031 281.4375 C 340.476562 292.394531 360.28125 296.535156 372.804688 298.101562 C 376.539062 298.566406 377.328125 302.90625 373.9375 304.3125 C 331.863281 321.75 286.730469 319.660156 259.371094 315.808594 C 245.953125 313.921875 233.777344 322.6875 233.777344 334.277344 L 233.777344 281.4375 Z M 323.332031 281.4375 "/>
<path style=" stroke:none;fill-rule:nonzero;fill:rgb(89.411765%,91.764706%,97.254902%);fill-opacity:1;" d="M 433.554688 175.757812 C 433.554688 240.609375 371.871094 293.179688 295.78125 293.179688 C 219.6875 293.179688 158.003906 240.609375 158.003906 175.757812 C 158.003906 110.910156 219.6875 58.335938 295.78125 58.335938 C 371.871094 58.335938 433.554688 110.910156 433.554688 175.757812 Z M 433.554688 175.757812 "/>
<path style=" stroke:none;fill-rule:nonzero;fill:rgb(83.529412%,86.27451%,92.941176%);fill-opacity:1;" d="M 295.777344 58.332031 C 314.332031 58.332031 332.007812 61.503906 348.164062 67.175781 C 369.238281 89.171875 381.886719 117.257812 381.886719 147.867188 C 381.886719 218.394531 314.804688 275.566406 232.054688 275.566406 C 229 275.566406 225.972656 275.464844 222.964844 275.3125 C 184.003906 254.566406 158 217.792969 158 175.757812 C 158 110.90625 219.683594 58.332031 295.777344 58.332031 Z M 295.777344 58.332031 "/>
<path style=" stroke:none;fill-rule:nonzero;fill:rgb(83.529412%,86.27451%,92.941176%);fill-opacity:1;" d="M 281.996094 175.757812 C 281.996094 240.609375 220.3125 293.179688 144.21875 293.179688 C 68.128906 293.179688 6.445312 240.609375 6.445312 175.757812 C 6.445312 110.910156 68.128906 58.335938 144.21875 58.335938 C 220.3125 58.335938 281.996094 110.910156 281.996094 175.757812 Z M 281.996094 175.757812 "/>
<path style=" stroke:none;fill-rule:nonzero;fill:rgb(78.039216%,81.176471%,88.627451%);fill-opacity:1;" d="M 144.222656 58.332031 C 125.667969 58.332031 107.992188 61.503906 91.835938 67.175781 C 70.761719 89.171875 58.113281 117.257812 58.113281 147.867188 C 58.113281 218.394531 125.195312 275.566406 207.945312 275.566406 C 211 275.566406 214.027344 275.464844 217.035156 275.3125 C 255.996094 254.566406 282 217.792969 282 175.757812 C 282 110.90625 220.316406 58.332031 144.222656 58.332031 Z M 144.222656 58.332031 "/>
<path style=" stroke:none;fill-rule:nonzero;fill:rgb(89.411765%,91.764706%,97.254902%);fill-opacity:1;" d="M 357.773438 134.65625 C 357.773438 199.503906 296.089844 252.078125 220 252.078125 C 143.910156 252.078125 82.226562 199.503906 82.226562 134.65625 C 82.226562 69.804688 143.910156 17.234375 220 17.234375 C 296.089844 17.234375 357.773438 69.804688 357.773438 134.65625 Z M 357.773438 134.65625 "/>
<path style=" stroke:none;fill-rule:nonzero;fill:rgb(83.529412%,86.27451%,92.941176%);fill-opacity:1;" d="M 288.886719 216.855469 C 212.796875 216.855469 151.109375 164.28125 151.109375 99.429688 C 151.109375 69.15625 164.671875 41.644531 186.75 20.820312 C 126.75 33.519531 82.222656 79.597656 82.222656 134.660156 C 82.222656 199.507812 143.90625 252.082031 220 252.082031 C 260.566406 252.082031 296.925781 237.046875 322.136719 213.269531 C 311.472656 215.523438 300.375 216.855469 288.886719 216.855469 Z M 288.886719 216.855469 "/>
<path style=" stroke:none;fill-rule:nonzero;fill:rgb(70.588235%,90.196078%,43.137255%);fill-opacity:1;" d="M 378.21875 179.972656 C 378.484375 176.324219 373.402344 174.257812 370.214844 176.703125 C 357.460938 186.503906 338.457031 196.671875 288.929688 205.113281 C 251.988281 211.410156 234.878906 231.199219 226.933594 248.210938 C 225.824219 250.585938 223.039062 252.082031 220.039062 252.082031 C 217.042969 252.082031 214.253906 250.585938 213.144531 248.210938 C 205.203125 231.199219 188.089844 211.410156 151.152344 205.113281 C 101.621094 196.671875 82.621094 186.503906 69.867188 176.703125 C 66.679688 174.253906 61.597656 176.324219 61.863281 179.972656 C 63.917969 208.121094 79.011719 286.207031 182.71875 297.769531 C 196.269531 299.28125 206.261719 309.347656 206.261719 320.996094 L 206.261719 357.765625 L 233.816406 357.765625 L 233.816406 320.996094 C 233.816406 309.347656 243.8125 299.28125 257.359375 297.769531 C 361.070312 286.207031 376.164062 208.121094 378.21875 179.972656 Z M 378.21875 179.972656 "/>
<path style=" stroke:none;fill-rule:nonzero;fill:rgb(62.745098%,84.313725%,33.333333%);fill-opacity:1;" d="M 288.886719 240.339844 C 337.175781 219.761719 369.589844 194.683594 376.878906 176.9375 C 375.203125 175.46875 372.304688 175.097656 370.203125 176.714844 C 357.449219 186.507812 338.441406 196.671875 288.929688 205.113281 C 251.992188 211.410156 234.875 231.199219 226.933594 248.210938 C 225.824219 250.585938 223.039062 252.082031 220.039062 252.082031 C 217.039062 252.082031 214.253906 250.585938 213.144531 248.210938 C 205.203125 231.199219 188.089844 211.410156 151.152344 205.113281 C 101.636719 196.671875 82.628906 186.507812 69.878906 176.714844 C 66.6875 174.261719 61.597656 176.332031 61.863281 179.988281 C 63.917969 208.132812 79.011719 286.132812 182.566406 297.75 C 196.167969 299.277344 206.261719 309.300781 206.261719 320.992188 L 206.261719 357.761719 L 220 357.761719 C 220 357.761719 220 334.277344 220 310.792969 C 220 275.566406 241.964844 260.335938 288.886719 240.339844 Z M 288.886719 240.339844 "/>
<path style=" stroke:none;fill-rule:nonzero;fill:rgb(56.862745%,78.431373%,29.411765%);fill-opacity:1;" d="M 192.445312 275.566406 C 172.589844 264.289062 95.550781 269.199219 65.085938 175.921875 C 63.199219 176.484375 61.714844 177.980469 61.863281 179.988281 C 63.921875 208.144531 79.027344 286.207031 182.71875 297.769531 C 196.269531 299.28125 206.261719 309.347656 206.261719 320.992188 C 206.261719 304.921875 205.261719 282.851562 192.445312 275.566406 Z M 192.445312 275.566406 "/>
<path style=" stroke:none;fill-rule:nonzero;fill:rgb(0%,0%,0%);fill-opacity:1;" d="M 440 175.757812 C 440 147.699219 429.199219 121.285156 408.765625 99.359375 C 389.183594 78.351562 361.753906 63.210938 331.421875 56.632812 C 321.585938 46.4375 309.859375 37.589844 296.617188 30.5 C 273.691406 18.226562 247.199219 11.742188 220 11.742188 C 175.214844 11.742188 135.136719 29.230469 108.660156 56.613281 C 78.335938 63.171875 50.90625 78.289062 31.308594 99.277344 C 10.828125 121.214844 0 147.664062 0 175.757812 C 0 226.441406 36.179688 270.054688 87.683594 288.832031 C 69.53125 293.460938 54.847656 293.558594 54.667969 293.558594 C 51.769531 293.558594 49.230469 295.207031 48.457031 297.585938 C 47.683594 299.964844 48.867188 302.492188 51.351562 303.761719 C 99.136719 328.199219 153.515625 325.195312 181.679688 321.230469 C 186.214844 320.589844 190.820312 321.671875 194.308594 324.195312 C 197.785156 326.707031 199.777344 330.382812 199.777344 334.28125 L 199.777344 357.765625 C 199.777344 360.796875 202.660156 363.257812 206.222656 363.257812 C 209.78125 363.257812 212.667969 360.796875 212.667969 357.765625 L 212.667969 320.996094 C 212.667969 306.5 200.132812 294.175781 183.515625 292.324219 C 157.457031 289.417969 135.296875 281.882812 117.652344 269.929688 C 114.867188 268.039062 110.8125 268.4375 108.597656 270.8125 C 106.382812 273.1875 106.84375 276.640625 109.632812 278.527344 C 113.703125 281.285156 117.992188 283.816406 122.472656 286.144531 C 60.371094 277.285156 12.890625 231.160156 12.890625 175.757812 C 12.890625 150.171875 22.746094 126.09375 41.394531 106.121094 C 55.828125 90.660156 74.921875 78.703125 96.296875 71.53125 C 83.277344 89.996094 75.777344 111.59375 75.777344 134.660156 C 75.777344 150.390625 79.332031 165.953125 86.136719 180.4375 C 77.636719 175.828125 72.128906 171.132812 66.703125 166.503906 L 66.113281 166 C 64.304688 164.460938 61.601562 163.976562 59.21875 164.765625 C 56.835938 165.558594 55.226562 167.472656 55.117188 169.648438 C 55.011719 171.773438 52.894531 222.164062 89.273438 261.144531 C 91.488281 263.519531 95.542969 263.914062 98.328125 262.023438 C 101.113281 260.136719 101.578125 256.679688 99.359375 254.308594 C 76.644531 229.964844 70.3125 199.898438 68.59375 183.078125 C 81.921875 192.605469 102.480469 202.425781 149.847656 210.5 C 176.101562 214.976562 194.769531 227.140625 205.328125 246.65625 C 213.398438 261.566406 213.554688 275.441406 213.554688 275.566406 C 213.554688 278.601562 216.441406 281.058594 220 281.058594 C 223.5625 281.058594 226.445312 278.601562 226.445312 275.566406 C 226.445312 275.433594 226.539062 261.90625 234.480469 247.015625 C 245 227.289062 263.734375 215.003906 290.152344 210.5 C 337.558594 202.417969 358.113281 192.589844 371.441406 183.058594 C 370.367188 193.765625 367.417969 209.867188 359.5 226.453125 C 351.515625 243.171875 340.105469 257.03125 325.582031 267.652344 C 307.414062 280.9375 284.167969 289.238281 256.484375 292.324219 C 239.867188 294.175781 227.332031 306.503906 227.332031 320.996094 L 227.332031 357.765625 C 227.332031 360.796875 230.21875 363.257812 233.777344 363.257812 C 237.339844 363.257812 240.222656 360.796875 240.222656 357.765625 L 240.222656 334.28125 C 240.222656 330.382812 242.214844 326.707031 245.691406 324.195312 C 249.179688 321.671875 253.785156 320.589844 258.320312 321.230469 C 286.484375 325.195312 340.863281 328.199219 388.648438 303.761719 C 391.132812 302.492188 392.320312 299.964844 391.542969 297.585938 C 390.773438 295.207031 388.230469 293.558594 385.332031 293.558594 C 385.144531 293.558594 370.511719 293.492188 352.304688 288.835938 C 403.8125 270.058594 440 226.445312 440 175.757812 Z M 181.84375 303.21875 C 188.757812 303.988281 194.507812 307.734375 197.515625 312.859375 C 192.070312 310.410156 185.789062 309.515625 179.578125 310.390625 C 156.859375 313.589844 116.007812 316.152344 76.867188 302.410156 C 85.597656 300.96875 96.117188 298.550781 106.949219 294.503906 C 118.84375 297.21875 131.335938 298.675781 144.222656 298.675781 C 147.761719 298.675781 151.34375 298.5625 154.871094 298.339844 C 163.394531 300.523438 172.386719 302.164062 181.84375 303.21875 Z M 363.132812 302.410156 C 323.992188 316.152344 283.140625 313.589844 260.421875 310.390625 C 254.210938 309.515625 247.929688 310.410156 242.484375 312.859375 C 245.492188 307.734375 251.246094 303.988281 258.15625 303.21875 C 267.898438 302.128906 276.878906 300.46875 285.160156 298.339844 C 288.679688 298.558594 292.246094 298.675781 295.777344 298.675781 C 308.664062 298.675781 321.15625 297.21875 333.050781 294.503906 C 343.882812 298.550781 354.402344 300.96875 363.132812 302.410156 Z M 317.410156 286.160156 C 346.355469 271.09375 362.484375 249.339844 371.4375 230.59375 C 386.214844 199.636719 384.945312 170.859375 384.882812 169.648438 C 384.769531 167.472656 383.164062 165.558594 380.78125 164.765625 C 378.394531 163.976562 375.691406 164.460938 373.886719 166 L 373.296875 166.503906 C 367.871094 171.132812 362.363281 175.828125 353.863281 180.4375 C 360.667969 165.957031 364.222656 150.390625 364.222656 134.660156 C 364.222656 124.253906 362.691406 113.914062 359.675781 103.925781 C 358.789062 100.988281 355.273438 99.21875 351.828125 99.976562 C 348.378906 100.734375 346.304688 103.726562 347.191406 106.667969 C 349.9375 115.757812 351.332031 125.175781 351.332031 134.660156 C 351.332031 153.488281 345.746094 172.042969 335.191406 188.433594 C 323.683594 192.371094 308.5 196.167969 287.625 199.726562 C 249.363281 206.25 231.222656 226.570312 222.742188 242.472656 C 221.71875 244.390625 220.808594 246.292969 220 248.152344 C 219.191406 246.292969 218.28125 244.390625 217.257812 242.472656 C 208.777344 226.570312 190.636719 206.25 152.375 199.726562 C 131.5 196.167969 116.316406 192.371094 104.808594 188.433594 C 94.253906 172.039062 88.667969 153.488281 88.667969 134.660156 C 88.667969 72.941406 147.582031 22.730469 220 22.730469 C 244.769531 22.730469 268.890625 28.632812 289.757812 39.804688 C 310.070312 50.679688 326.511719 66.054688 337.304688 84.273438 C 338.910156 86.980469 342.785156 88.066406 345.964844 86.699219 C 349.140625 85.332031 350.417969 82.027344 348.8125 79.320312 C 347.246094 76.675781 345.5625 74.089844 343.78125 71.558594 C 365.160156 78.746094 384.25 90.722656 398.671875 106.195312 C 417.273438 126.152344 427.109375 150.207031 427.109375 175.757812 C 427.109375 231.195312 379.570312 277.34375 317.410156 286.160156 Z M 317.410156 286.160156 "/>
</g>
</svg>
